<svg id="BACKGROUND" xmlns="http://www.w3.org/2000/svg" width="899.75" height="262.15" viewBox="0 0 899.75 262.15"><title>logo-color</title><circle cx="131.07" cy="131.07" r="131.07" style="fill:#5e69ff"/><polygon points="98.55 83.33 98.55 178.82 181.25 131.07 98.55 83.33" style="fill:#fff"/><path d="M313.27,215.89l42-1.49h84.2v19.94H313.27Zm41.36-13.69c0-35.1,18.44-58.61,58.31-58.61a107.42,107.42,0,0,1,41.66,8.33l-5.66,18.45a78.21,78.21,0,0,0-33.62-6.84c-25.88,0-36.3,14.57-36.3,37.78V359H354.63Z" transform="translate(-20.48 -118.93)" style="fill:#5e69ff"/><path d="M482.86,147.76H509V359H482.86Z" transform="translate(-20.48 -118.93)" style="fill:#5e69ff"/><path d="M567.65,291.76c.6,35.41,23.21,50,49.39,50,18.75,0,30.05-3.28,39.87-7.44l4.47,18.74c-9.23,4.17-25,8.93-47.91,8.93-44.33,0-70.81-29.16-70.81-72.6s25.59-77.65,67.54-77.65c47,0,59.51,41.35,59.51,67.83a97.94,97.94,0,0,1-.9,12.2ZM644.42,273c.29-16.67-6.85-42.55-36.3-42.55-26.48,0-38.09,24.4-40.17,42.55Z" transform="translate(-20.48 -118.93)" style="fill:#5e69ff"/><path d="M716.72,291.76c.59,35.41,23.2,50,49.39,50,18.74,0,30-3.28,39.87-7.44l4.46,18.74c-9.23,4.17-25,8.93-47.9,8.93-44.34,0-70.82-29.16-70.82-72.6s25.59-77.65,67.54-77.65c47,0,59.51,41.35,59.51,67.83a100.38,100.38,0,0,1-.89,12.2ZM793.48,273c.3-16.67-6.84-42.55-36.3-42.55-26.48,0-38.08,24.4-40.17,42.55Z" transform="translate(-20.48 -118.93)" style="fill:#5e69ff"/><path d="M882.74,173.64V215h37.48v19.93H882.74v77.66c0,17.85,5,28,19.63,28a58.37,58.37,0,0,0,15.18-1.79l1.19,19.64c-5.06,2.08-13.09,3.57-23.21,3.57-12.2,0-22-3.87-28.27-11-7.43-7.74-10.11-20.53-10.11-37.49V234.93H834.83V215h22.32V180.48Z" transform="translate(-20.48 -118.93)" style="fill:#5e69ff"/></svg>